<?xml version="1.0" encoding="UTF-8"?>
<svg id="Layer_1" data-name="Layer 1" xmlns="http://www.w3.org/2000/svg" viewBox="0 0 252 144">
  <defs>
    <style>
      .cls-1 {
        fill: #fff;
      }
    </style>
  </defs>
  <g>
    <path class="cls-1" d="M92.77,97.26c.06-12.51.5-46.58-.22-50.48-.34-.84-.93-1.51-1.65-2.04-8.85-5.8-18.01-11.07-27.03-16.57-1.84-1.11-3.62-2.31-5.45-3.47-1.13-.64-2.29-1.65-3.6-1.7-11.33,5.99-22.4,13.34-33.5,20.01-1.9,1.22-4.43,2.42-4.37,5.14-.11,16.16-.23,32.39.05,48.55.03,1.33.56,2.49,1.64,3.23,11.36,7.72,23.15,14.82,34.51,22.57,2.23,1.74,4.43-.87,6.38-1.91,2.52-1.64,5.03-3.36,7.52-5.03,7.2-4.75,14.45-9.4,21.68-14.08,1.67-1.03,3.06-2.5,4.02-4.21h0ZM89.05,95.52c-.93,2.86-5.17,4.15-7.41,5.95-8.99,5.51-17.53,12.21-26.79,17.06-10.22-5.44-19.62-12.98-29.7-18.89-1.78-1.14-4.46-2.28-4.48-4.82-.21-14.48-.02-28.99-.08-43.48-.04-4.33,2.21-4.26,6.07-6.83,8.23-4.92,21.17-12.89,28.07-16.94,10.8,5.99,21.37,12.73,31.96,19.2,1.17.64,2.41,1.88,2.45,3.28-.09,3.06.17,34.75-.09,45.46h0Z"/>
    <path class="cls-1" d="M52.03,64.4c.24.66.76,1.34,1.33,2.07.54.7,1.13,1.37,1.76,1.3.4-.02.84-.38,1.14-.71,1.14-1.25,1.95-2.69,1.96-4.36.11-2.5-.04-5.04-.02-7.56.02-.45.08-.95.33-1.31.83-1.12,3.37-.47,4.65-.69,2.11-.22-.15-2.31-.73-3.09-1.56-1.8-3.1-3.52-4.63-5.33-1-1.05-2.34-3.36-3.98-2.08-2.47,2.49-4.58,5.34-6.95,7.92-.42.57-1.79,1.73-1.05,2.39.81.39,1.69.18,2.62.23.88.03,2.35-.14,2.93.33.28.21.37.59.39.94.17,2.68-.33,7.12.23,9.89l.02.06Z"/>
    <path class="cls-1" d="M44.96,76.45c1.41,1.45,3.03-1.89,4.08-3.04.94-1.18,1.83-2.63.71-4.02-3.04-4-6.38-7.85-9.57-11.76-.86-1.04-1.83-2.12-3.13-2.58-1.37-.52-3.34-.36-5.07-.39-1.19.04-3.35-.11-2.72,1.53.21.55.7,1.2,1.11,1.72,4.95,6.07,9.58,12.47,14.54,18.5l.04.04Z"/>
    <path class="cls-1" d="M60.73,81.83c6.4-8.62,13.26-16.94,19.66-25.55.72-1.24-.29-1.5-1.37-1.49-1.45,0-3.28,0-4.73,0-.7.01-1.41.07-2.05.36-.74.31-1.36.93-1.88,1.56-4.37,5.4-8.74,10.75-13,16.22-2.15,2.7-5.08,6.7-7.09,9.34-.62.76-.84,1.59-.81,2.56,0,2-.07,4.04-.12,6.06-.02.5-.05,1.06-.28,1.5-.49,1.04-2.05.69-2.96,1.07-.64.31-.29,1.05.07,1.53,2.12,2.57,4.37,5.04,6.53,7.58.86,1.06,2.12,1.77,3.3.69,2.23-2.2,4.12-4.69,6.24-7.02.46-.64,2.05-2.08,1.07-2.76-.28-.14-.47-.18-.78-.21-2.85,0-2.71-1.14-2.77-3.49-.02-2.63-.51-5.62.93-7.9l.04-.06Z"/>
  </g>
  <g>
    <path class="cls-1" d="M100.33,66.9c1.45-2.92,3.72-5.56,6.59-7.18,4.72-2.76,11.41-2.94,16.14.13,1.09.69,2.15,1.56,3.01,2.48.42.4.62.78.96.74.13-.09.15-.29.17-.45.07-.67.02-2.12.04-3.02,0-.76-.02-1.46.99-1.39,1.58-.01,5.75,0,7.39,0,.7.04,1.01-.09,1.05.28-.02,2.98.05,33.72-.02,38.11-.14.24-.52.14-.8.17-1.64-.02-6.07.05-7.96-.02-.85-.1-.61-.88-.67-1.67-.08-.52.21-3.35-.29-3.32-.3.06-.96.99-1.68,1.63-2.86,2.72-6.71,4.1-10.67,3.98-14.96-.36-20.02-18.8-14.31-30.38l.03-.07ZM125.87,71.36c-2.03-4.08-6.96-6.18-11.29-4.8-4.54,1.43-7.03,5.9-6.97,10.69-.27,6.52,4.86,12.81,11.75,11.34,7.65-1.59,9.55-11.14,6.54-17.18l-.03-.05Z"/>
    <path class="cls-1" d="M157.46,66.6c-.57.32-.67.96-.69,2.02-.01.81,0,1.87,0,3.07,0,3.6,0,7.4,0,11-.11,2.8.7,4.92,3.48,5.52,1.67.43,3.93.09,4.54,2.1.42,1.57.46,4.16-.28,5.34-.88,1.15-2.16,1.04-3.82,1.06-9.89.07-13.52-4.5-13.38-13.88-.01-4.07,0-10.28,0-13.85.1-2.97-1.55-2.19-3.31-3.35-1.4-1.07-1.36-4.41-.63-6.04.7-1.46,2.65-1.19,3.43-2.53.87-1.68.33-4.2.58-6.05.09-2.74,2.75-2.22,5.09-2.29.86,0,1.76,0,2.58.16,3.16.49.69,6.73,2.33,8.6,1.38,1.28,4.22.43,6,.98,1.2.26,1.59,1.41,1.63,2.53.02,1.42.27,3.18-.58,4.4-1.57,1.58-4.93.3-6.96,1.21l-.04.02Z"/>
    <path class="cls-1" d="M185.98,59.4c1.69-.96,4.26-1.9,6.07-1.56.87.41.43,2.12.53,3.01,0,1.42,0,3.2,0,4.57-.01.89.05,1.55-.13,1.92-.32.69-1.8.49-2.63.57-6.35.18-8.57,3.53-8.62,9.7-.02,3.36,0,11.8,0,16.69,0,1.03.02,1.76-.03,2.11-.05.37-.46.35-.8.37-1.85.03-6.01,0-7.62,0-.32-.01-.69.04-.89-.16-.04-3.68-.17-35.07.05-38.34.11-.09.41-.1,1.02-.11,1.61,0,5.66-.01,7.22,0,.88-.02,1.03.44,1.04,1.21.04,1.1-.04,3,.07,3.72.02.12.05.24.13.31.31.11.68-.56.91-.79,1.01-1.28,2.26-2.4,3.61-3.21l.06-.04Z"/>
    <path class="cls-1" d="M198.78,66.88c1.83-3.7,4.95-6.82,8.92-8.28,4.36-1.61,9.8-1.36,13.79,1.23.97.61,1.88,1.35,2.68,2.14.5.45.75.86,1.17.83.1-.03.16-.16.2-.27.2-.55.09-2.19.17-3.11,0-.68.35-1.24,1.1-1.23,1.8-.08,4.89,0,6.7-.03.47,0,1.42,0,1.5.15.32,3.51,0,33.54.11,37.85.04.49-.22.58-.68.59-1.93.06-4.96,0-7.02.02-.45-.01-.99,0-1.34-.25-.89-.6.07-4.35-.83-4.54-.37.05-1.11,1.02-1.97,1.74-1.81,1.57-3.97,2.71-6.26,3.22-7.09,1.68-14.34-1.78-17.72-8.06-3.67-6.56-3.75-15.33-.56-21.94l.03-.07ZM224.32,71.37c-1.96-4.02-6.99-6.22-11.3-4.81-4.73,1.49-7.17,6.19-6.97,11.19-.06,6.37,5.09,12.27,11.75,10.84,7.57-1.57,9.59-11.03,6.54-17.18l-.02-.04Z"/>
  </g>
</svg>